<svg width="8" height="12" viewBox="0 0 8 12" fill="none" xmlns="http://www.w3.org/2000/svg">
<path fill-rule="evenodd" clip-rule="evenodd" d="M6.95315 7.18718L2.66743 11.6443C2.46959 11.8249 2.22342 11.9439 1.95902 11.9868C1.69463 12.0297 1.42346 11.9946 1.17867 11.8859C0.933884 11.7771 0.726092 11.5994 0.580699 11.3744C0.435307 11.1495 0.358616 10.887 0.360004 10.6192V1.38089C0.360043 1.11416 0.437479 0.853161 0.582922 0.629564C0.728364 0.405968 0.935562 0.229378 1.17938 0.121214C1.42321 0.0130505 1.69318 -0.0220399 1.95655 0.0201994C2.21992 0.0624388 2.46538 0.180193 2.66315 0.359179L6.95315 4.81632C7.11821 4.96654 7.25008 5.14958 7.34031 5.35371C7.43055 5.55784 7.47716 5.77857 7.47716 6.00175C7.47716 6.22494 7.43055 6.44566 7.34031 6.64979C7.25008 6.85392 7.11821 7.03696 6.95315 7.18718Z" fill="white"/>
</svg>
