<svg width="8" height="12" viewBox="0 0 8 12" fill="none" xmlns="http://www.w3.org/2000/svg">
<path fill-rule="evenodd" clip-rule="evenodd" d="M1.04685 4.81282L5.33257 0.355679C5.53041 0.175105 5.77658 0.0560911 6.04097 0.0131896C6.30537 -0.0297119 6.57654 0.00535769 6.82133 0.114111C7.06612 0.222864 7.27391 0.400588 7.4193 0.625551C7.56469 0.850515 7.64138 1.11297 7.64 1.38082L7.64 10.6191C7.63996 10.8858 7.56252 11.1468 7.41708 11.3704C7.27164 11.594 7.06444 11.7706 6.82062 11.8788C6.57679 11.9869 6.30682 12.022 6.04345 11.9798C5.78008 11.9376 5.53462 11.8198 5.33685 11.6408L1.04685 7.18368C0.881792 7.03346 0.749922 6.85042 0.659687 6.64629C0.569453 6.44216 0.522843 6.22144 0.522843 5.99825C0.522843 5.77507 0.569453 5.55434 0.659687 5.35021C0.749922 5.14608 0.881792 4.96304 1.04685 4.81282Z" fill="white"/>
</svg>
