<svg width="8" height="8" viewBox="0 0 8 8" fill="none" xmlns="http://www.w3.org/2000/svg">
<path fill-rule="evenodd" clip-rule="evenodd" d="M6.01731 0.355894L4.00065 2.37096L1.98399 0.3543C1.87775 0.243649 1.75048 0.15532 1.60965 0.094491C1.46883 0.0336617 1.31727 0.00155574 1.16388 5.51513e-05C1.01048 -0.00144544 0.858334 0.0276896 0.716344 0.0857523C0.574355 0.143815 0.445385 0.229637 0.336992 0.338188C0.2286 0.44674 0.142967 0.575836 0.0851131 0.71791C0.0272588 0.859985 -0.00165273 1.01218 7.2938e-05 1.16557C0.00179861 1.31896 0.0341267 1.47047 0.0951627 1.61121C0.156199 1.75194 0.244714 1.87908 0.355521 1.98516L2.37138 4.00182L0.357115 6.01609C0.146527 6.23367 0.0298766 6.52529 0.0323116 6.82808C0.0347466 7.13087 0.156072 7.42058 0.370132 7.63474C0.584192 7.84891 0.873839 7.97038 1.17663 7.97296C1.47942 7.97554 1.77109 7.85903 1.98878 7.64855L4.00065 5.6303L6.01572 7.64616C6.12205 7.7566 6.24933 7.84473 6.39012 7.9054C6.53091 7.96608 6.68238 7.99807 6.83568 7.99953C6.98897 8.00098 7.14102 7.97185 7.28294 7.91386C7.42485 7.85586 7.55377 7.77016 7.66218 7.66175C7.77058 7.55335 7.85628 7.42442 7.91428 7.28251C7.97228 7.1406 8.0014 6.98855 7.99995 6.83525C7.9985 6.68195 7.9665 6.53048 7.90583 6.3897C7.84515 6.24891 7.75702 6.12163 7.64658 6.0153L5.63471 4.00262L7.64898 1.98835C7.85956 1.77077 7.97621 1.47915 7.97378 1.17636C7.97134 0.873573 7.85002 0.583866 7.63596 0.369702C7.4219 0.155538 7.13225 0.0340704 6.82946 0.0314875C6.52667 0.0289047 6.235 0.145413 6.01731 0.355894Z" fill="#444A58"/>
</svg>
