<svg viewBox="0 0 119 29" fill="none" xmlns="http://www.w3.org/2000/svg">
<path d="M17.0437 0.726345C16.771 0.295919 16.2529 0 15.7348 0H12.7896C8.91729 0 5.64489 0.833952 3.32694 2.39425C1.19988 3.82004 0 5.75696 0 7.74768C0 10.2495 1.96344 12.0519 4.69044 12.0519C7.69014 12.0519 8.91729 9.79221 9.16272 8.58163C9.32634 7.74768 8.78094 6.94063 7.93557 6.77922C7.0902 6.61781 6.2721 7.15585 6.10848 7.9898C6.08121 8.0974 5.86305 8.95826 4.69044 8.95826C4.11777 8.95826 3.13605 8.79685 3.13605 7.74768C3.13605 7.02134 3.65418 5.91837 5.07222 4.94991C6.32664 4.08905 8.67186 3.09369 12.7896 3.09369H13.2259L6.38118 17.1095C6.02667 17.8627 6.35391 18.8043 7.11747 19.154C7.33563 19.2616 7.58106 19.3154 7.79922 19.3154C8.37189 19.3154 8.94456 18.9926 9.21726 18.4545L17.1256 2.23284C17.371 1.74861 17.3437 1.18367 17.0437 0.726345Z" fill="#428AF5"/>
<path d="M14.3621 19.3154C14.8257 19.3154 15.2893 19.1271 15.5893 18.7505C19.3798 14.2041 22.9249 10.7069 24.6975 9.44249C24.5066 10.0074 24.2339 10.68 24.0157 11.1911C23.034 13.6391 22.025 16.1948 23.2521 17.9434C23.6612 18.5622 24.5611 19.3154 26.3064 19.3154C28.5425 19.3154 30.9696 17.4861 33.6693 13.7199C34.1601 13.0204 33.9965 12.0519 33.2875 11.5677C32.6058 11.0566 31.624 11.218 31.1059 11.9174C28.2426 15.9258 26.7154 16.2217 26.3064 16.2217C25.4065 16.2217 26.5245 13.3701 26.9336 12.3479C27.8608 10.0612 28.5971 8.23191 27.6426 6.88683C27.3972 6.5102 26.77 5.86456 25.5156 5.86456C24.5884 5.86456 23.2794 6.29499 20.4161 8.98516L20.8524 8.0974C21.2342 7.31725 20.9069 6.4026 20.1161 6.02597C19.3253 5.64935 18.3981 5.97217 18.0163 6.75232L12.9714 17.1095C12.6168 17.8089 12.8623 18.6429 13.544 19.0733C13.7895 19.2347 14.0894 19.3154 14.3621 19.3154Z" fill="#428AF5"/>
<path d="M49.3016 11.5677C48.5926 11.0835 47.6109 11.2449 47.12 11.9443C44.2566 15.9258 42.7295 16.2217 42.3205 16.2217C41.9932 16.2217 41.6115 16.1679 41.5296 16.0334C41.2569 15.6299 41.4751 14.3386 41.8569 13.4777L47.3382 2.23284C47.7199 1.45269 47.3927 0.538034 46.6019 0.161411C45.8383 -0.188311 44.8839 0.134508 44.5293 0.887755L41.4751 7.10204C40.8752 6.4833 39.8934 5.89147 38.23 5.89147C34.2486 5.89147 30.3762 11.1642 30.3762 15.0918C30.3762 16.2755 30.7307 17.2978 31.4397 18.051C31.9851 18.6429 32.9941 19.3154 34.7394 19.3154C36.1575 19.3154 37.5482 18.7236 38.8299 17.5937C38.8572 17.6475 38.8845 17.6744 38.9117 17.7282C39.4026 18.4545 40.3843 19.3154 42.3205 19.3154C44.5566 19.3154 46.9564 17.4861 49.6561 13.7199C50.1742 13.0204 50.0106 12.0788 49.3016 11.5677ZM34.7394 16.2217C34.4667 16.2217 33.9486 16.1948 33.7304 15.9527C33.5941 15.7913 33.5123 15.4954 33.5123 15.0918C33.5123 12.7783 36.1575 8.98516 38.23 8.98516C38.6118 8.98516 39.0753 9.03896 39.2662 9.28108C39.6207 9.84601 39.3208 11.3525 38.9935 12.2403C38.5027 13.2894 36.7029 16.2217 34.7394 16.2217Z" fill="#428AF5"/>
<path d="M81.0688 11.5408C80.3871 11.0566 79.4053 11.218 78.9145 11.9174C76.0784 15.872 74.5513 16.1679 74.1422 16.1679C72.6696 16.1679 71.6334 14.9035 70.488 12.859C72.3697 10.8952 74.3876 8.95826 75.8875 8.95826C76.7329 8.95826 77.4419 8.28571 77.4419 7.42486C77.4419 6.59091 76.7329 5.89147 75.8875 5.89147C73.4059 5.89147 71.1425 7.80148 68.9336 10.0343C67.7338 7.88219 66.2612 5.89147 63.8069 5.89147C61.0526 5.89147 59.58 8.36642 58.162 10.7338C56.4985 13.5315 54.9169 16.1679 51.4809 16.1679C50.6355 16.1679 49.9537 15.9796 49.5447 15.6568C49.2993 15.4685 49.1902 15.2263 49.1902 14.9304C49.1902 14.2041 49.9537 13.2087 51.699 13.2087C52.5444 13.2087 53.2534 12.5093 53.2534 11.6753C53.2534 10.8683 52.6535 10.2226 51.8626 10.1419C51.9172 9.95362 52.0535 9.7115 52.2444 9.46939C52.408 9.28108 52.7353 8.95826 53.1989 8.95826C53.3625 8.95826 53.6352 8.95826 53.717 9.38868C53.7715 9.79221 54.017 10.1688 54.3442 10.4109C54.6714 10.6531 55.0805 10.7338 55.4895 10.68C55.8986 10.6262 56.2531 10.4109 56.4985 10.0881C56.744 9.76531 56.853 9.33488 56.7985 8.93135C56.6349 7.72078 55.5168 5.89147 53.1989 5.89147C50.6355 5.89147 48.7266 8.25881 48.7266 10.3571C48.7266 10.5186 48.7266 10.6531 48.7539 10.8145C47.0358 11.7022 46.0814 13.3432 46.0814 14.9304C46.0814 16.141 46.5995 17.244 47.5812 18.0241C48.5357 18.8043 49.8992 19.2347 51.4809 19.2347C56.7167 19.2347 59.0892 15.2263 60.8617 12.2672C61.8707 10.5724 62.8252 8.95826 63.8069 8.95826C64.8159 8.95826 65.7703 10.6262 66.6975 12.3748C64.8431 14.2848 62.8524 16.1679 61.4344 16.1679C60.5618 16.1679 59.88 16.8404 59.88 17.7013C59.88 18.5352 60.5618 19.2347 61.4344 19.2347C63.8614 19.2347 66.043 17.4323 68.2519 15.1994C69.5881 17.3247 71.3334 19.2347 74.1422 19.2347C76.3784 19.2347 78.7509 17.4054 81.4506 13.666C81.9414 12.9935 81.7778 12.025 81.0688 11.5408Z" fill="#428AF5"/>
<path d="M89.086 11.5677C88.3769 11.0835 87.3952 11.2449 86.9044 11.9443C84.041 15.9258 82.5139 16.2217 82.1048 16.2217C82.023 16.2217 81.5867 16.2217 81.5049 16.0872C81.0413 15.2532 82.0776 11.7291 84.2046 8.23191C84.6682 7.50557 84.4228 6.56401 83.6865 6.10668C82.9229 5.67625 81.9685 5.91837 81.5322 6.64471C80.4414 8.44713 77.0054 14.5269 78.7779 17.6206C79.1597 18.2393 80.0596 19.3154 82.1048 19.3154C84.341 19.3154 86.7407 17.4861 89.4405 13.7199C89.9586 13.0204 89.795 12.0788 89.086 11.5677ZM84.7773 5.13822C85.1864 5.13822 85.5954 4.97681 85.8954 4.68089C86.1681 4.38497 86.359 4.00835 86.359 3.60482C86.359 3.1744 86.1681 2.79777 85.8954 2.50186C85.5954 2.20594 85.1864 2.04453 84.7773 2.04453C84.3683 2.04453 83.9592 2.20594 83.6865 2.50186C83.3865 2.79777 83.2229 3.1744 83.2229 3.60482C83.2229 4.00835 83.3865 4.38497 83.6865 4.68089C83.9592 4.97681 84.3683 5.13822 84.7773 5.13822Z" fill="#428AF5"/>
<path d="M102.284 13.9889C102.912 13.4239 102.966 12.4555 102.421 11.8098C101.848 11.1642 100.866 11.1104 100.212 11.6753C100.185 11.7022 97.6485 13.8275 92.7672 14.8228C93.6671 13.9082 94.4307 12.9666 95.0306 12.2134C97.2395 9.33488 99.612 5.38033 99.612 2.85158C99.612 2.07143 99.3665 1.39889 98.9302 0.887755C98.5757 0.48423 97.9212 0 96.8032 0C93.0126 0 89.6039 5.78386 87.8859 9.20037C85.377 14.2848 83.7408 19.961 83.7408 23.6197C83.7408 25.1262 83.9863 26.2829 84.5044 27.1707C85.1861 28.3544 86.3315 29 87.695 29C89.2766 29 90.5856 28.193 91.4037 26.6865C92.0036 25.5835 92.3582 24.1039 92.3582 22.5167C92.3582 20.9833 92.0309 19.4499 91.4582 18.1855C98.4666 17.2709 102.094 14.1503 102.284 13.9889ZM88.6494 25.2069C88.2676 25.9332 87.8586 25.9332 87.695 25.9332C87.4495 25.9332 87.3405 25.8794 87.2314 25.6373C87.095 25.4221 86.8769 24.8571 86.8769 23.6197C86.8769 22.2208 87.1768 20.4184 87.695 18.4545C88.4313 18.6429 89.2221 20.3915 89.2221 22.5167C89.2221 23.5659 89.0039 24.5612 88.6494 25.2069ZM89.1948 13.9351C89.6584 12.8052 90.1493 11.6753 90.6947 10.5724C93.1217 5.67625 95.3306 3.55102 96.4486 3.1744C96.285 4.35807 94.9488 7.31726 92.1945 10.7607C91.0765 12.1865 90.0402 13.2087 89.1948 13.9351Z" fill="#428AF5"/>
<path d="M118.299 11.5139C117.563 11.0566 116.581 11.2449 116.117 11.9712C116.117 11.9981 114.727 14.0696 112.518 16.141C111.291 17.2978 109.682 18.5622 107.882 19.3692C108.073 18.9657 108.291 18.5622 108.509 18.1317C110.963 13.128 112.736 8.20501 112.818 7.9898C113.09 7.20965 112.709 6.34879 111.918 6.05288C111.154 5.73006 110.254 6.07978 109.9 6.83302C109.9 6.85993 108.727 9.38868 107.146 11.8636C104.391 16.2217 103.082 16.2755 103.055 16.2755C102.891 16.2755 102.782 16.2486 102.755 16.2486C102.619 16.0065 102.482 14.8497 103.519 12.0519C104.309 10.0343 105.291 8.23191 105.291 8.23191C105.727 7.47866 105.428 6.53711 104.691 6.13358C103.928 5.70315 102.973 5.99907 102.564 6.72542C101.528 8.58163 98.31 14.8766 100.055 17.8089C100.41 18.4007 101.255 19.3692 103.055 19.3692C103.519 19.3692 104.009 19.2616 104.5 19.0733C104.282 19.4499 104.064 19.8265 103.873 20.1763C101.228 20.2301 99.1009 20.7412 97.5465 21.6827C95.9648 22.6512 95.0376 24.077 95.0376 25.5566C95.0376 27.4935 96.6193 28.9731 98.7464 28.9731C100.955 28.9731 103.219 27.1169 105.7 23.1892C112.981 22.2477 118.49 14.0158 118.735 13.666C119.226 12.9397 119.008 11.9712 118.299 11.5139ZM98.7464 25.8794C98.5282 25.8794 98.1737 25.8525 98.1737 25.5566C98.1737 25.2607 98.4464 24.7764 99.1827 24.3191C99.6735 24.0232 100.492 23.7004 101.692 23.4852C99.9462 25.718 98.9918 25.8794 98.7464 25.8794Z" fill="#428AF5"/>
</svg>

